<?xml version="1.0" ?><!DOCTYPE svg  PUBLIC '-//W3C//DTD SVG 1.1//EN'  'http://www.w3.org/Graphics/SVG/1.1/DTD/svg11.dtd'><svg enable-background="new 0 0 85 85" height="85px" id="Layer_1" version="1.1" viewBox="0 0 85 85" width="85px" xml:space="preserve" xmlns="http://www.w3.org/2000/svg" xmlns:xlink="http://www.w3.org/1999/xlink"><g><g><line fill="none" stroke="#394553" stroke-linecap="round" stroke-miterlimit="10" stroke-width="2.5" x1="17.793" x2="67.208" y1="49.275" y2="49.275"/><line fill="none" stroke="#394553" stroke-miterlimit="10" stroke-width="2.5" x1="42.5" x2="42.5" y1="27.057" y2="22.39"/><g><g><line fill="none" stroke="#394553" stroke-linecap="round" stroke-miterlimit="10" stroke-width="2.5" x1="62.311" x2="68.764" y1="26.871" y2="21.934"/><line fill="none" stroke="#394553" stroke-linecap="round" stroke-miterlimit="10" stroke-width="2.5" x1="68.152" x2="75.51" y1="35.323" y2="31.876"/></g><g><line fill="none" stroke="#394553" stroke-linecap="round" stroke-miterlimit="10" stroke-width="2.5" x1="22.689" x2="16.236" y1="26.871" y2="21.934"/><line fill="none" stroke="#394553" stroke-linecap="round" stroke-miterlimit="10" stroke-width="2.5" x1="16.848" x2="9.491" y1="35.323" y2="31.876"/></g></g><g><path d="     M68.779,66.394v-5.577c-4-1.397-4-5.418-4-5.418H20.221c0,0,0,4.021-4,5.418v5.577H68.779z" fill="none" stroke="#394553" stroke-linecap="round" stroke-linejoin="round" stroke-miterlimit="10" stroke-width="2.5"/></g><path d="M64.707,49.131    c-1.666-1.846-2.183-3.607-2.356-4.668c-1.558-9.495-6.845-16.738-19.851-16.738c-13.005,0-18.292,7.243-19.85,16.738    c-0.174,1.061-0.69,2.822-2.356,4.668" fill="none" stroke="#394553" stroke-linecap="round" stroke-miterlimit="10" stroke-width="2.5"/><path d="M38.374,33.73    c-4.025,0.728-6.749,2.665-8.433,6.032" fill="none" stroke="#394553" stroke-linecap="round" stroke-miterlimit="10" stroke-width="2.5"/><line fill="none" stroke="#394553" stroke-linecap="round" stroke-linejoin="round" stroke-miterlimit="10" stroke-width="2.5" x1="68.236" x2="34.208" y1="60.88" y2="60.88"/><line fill="none" stroke="#394553" stroke-linecap="round" stroke-linejoin="round" stroke-miterlimit="10" stroke-width="2.5" x1="25.874" x2="16.875" y1="60.88" y2="60.88"/></g><path d="   M37.567,22.255c0,0,0-0.097,0-1.357s1.275-2.292,2.835-2.292H44.6c1.559,0,2.834,1.031,2.834,2.292s0,1.357,0,1.357" fill="none" stroke="#394553" stroke-linecap="round" stroke-linejoin="round" stroke-miterlimit="10" stroke-width="2.5"/></g></svg>