<svg  viewBox="0 0 85 85" xmlns="http://www.w3.org/2000/svg">

<path d="M45.301,26.104     c3.199,0.076,6.383,1.326,8.844,3.752c2.48,2.447,3.777,5.645,3.881,8.874" fill="none" stroke="currentColor" stroke-miterlimit="10" stroke-width="2.5"/>
<path d="M45.547,18.86     c4.957,0.136,9.877,2.079,13.688,5.835c3.807,3.754,5.818,8.64,6.027,13.591" fill="none" stroke="currentColor" stroke-miterlimit="10" stroke-width="2.5"/>

<path d="M64.701,65.86l-10.947-7.339" fill="none" stroke="currentColor" stroke-miterlimit="10" stroke-width="2.5"/>
<path d="M26.326,31.296l-7.271-10.917    c-0.476,0.427-0.773,0.707-0.773,0.707c-2.731,2.433-2.124,4.56-2.124,4.56C18.002,38.65,31.692,51.18,32.738,52.27    c1.413,1.312,13.641,14.723,26.648,16.553c0,0,2.127,0.605,4.559-2.13l0.756-0.832c0.936-1.235,4.146-5.39,4.176-6.084    c0,0,0.305-1.364-1.293-2.503l-9.574-6.375c0,0-1.672-1.52-4.025-0.227l-5.771,3.193c0,0-5.791-4.596-9.001-8.076    c-3.483-3.205-8.087-8.99-8.087-8.99l3.188-5.773C35.603,28.67,34.083,27,34.083,27l-6.388-9.566    c-1.139-1.593-2.506-1.29-2.506-1.29c-0.705,0.032-1.968,0.844-3.222,1.802" fill="none" stroke="currentColor" stroke-miterlimit="10" stroke-width="2.5"/>

</svg>