<?xml version="1.0" ?><!DOCTYPE svg  PUBLIC '-//W3C//DTD SVG 1.1//EN'  'http://www.w3.org/Graphics/SVG/1.1/DTD/svg11.dtd'><svg enable-background="new 0 0 85 85" height="85px" id="Layer_1" version="1.1" viewBox="0 0 85 85" width="85px" xml:space="preserve" xmlns="http://www.w3.org/2000/svg" xmlns:xlink="http://www.w3.org/1999/xlink"><g><line fill="none" stroke="#99734c" stroke-linejoin="round" stroke-miterlimit="10" stroke-width="2.5" x1="38.101" x2="51.69" y1="18.308" y2="18.308"/><line fill="none" stroke="#99734c" stroke-linejoin="round" stroke-miterlimit="10" stroke-width="2.5" x1="41.128" x2="36.161" y1="62.387" y2="73.93"/><line fill="none" stroke="#99734c" stroke-linejoin="round" stroke-miterlimit="10" stroke-width="2.5" x1="33.698" x2="28.887" y1="62.467" y2="73.662"/><g><path d="M49.383,11.077    c0,0,5.416-0.65,1.594,10.785L36.333,55.939" fill="none" stroke="#99734c" stroke-linejoin="round" stroke-miterlimit="10" stroke-width="2.5"/><path d="M38.622,49.77    L26.896,22.519c-4.078-11.458,7.503-11.441,7.503-11.441h16.201c0,0,11.581-0.017,7.503,11.441L43.607,56.207" fill="none" stroke="#99734c" stroke-linejoin="round" stroke-miterlimit="10" stroke-width="2.5"/><path d="M35.617,11.077    c0,0-5.416-0.65-1.594,10.785l6.2,14.428" fill="none" stroke="#99734c" stroke-linejoin="round" stroke-miterlimit="10" stroke-width="2.5"/></g><line fill="none" stroke="#99734c" stroke-linejoin="round" stroke-miterlimit="10" stroke-width="2.5" x1="18.729" x2="66.271" y1="56.42" y2="56.42"/><line fill="none" stroke="#99734c" stroke-linejoin="round" stroke-miterlimit="10" stroke-width="2.5" x1="18.729" x2="66.271" y1="62.609" y2="62.609"/><path d="M58.839,18.237h1.993   c3.095,0,5.626,2.533,5.626,5.627v44.347c0,3.096-2.531,5.627-5.626,5.627H24.167c-3.094,0-5.625-2.531-5.625-5.627V23.864   c0-1.803,0.861-3.416,2.191-4.446c0.137-0.107,0.279-0.206,0.427-0.3" fill="none" stroke="#99734c" stroke-linejoin="round" stroke-miterlimit="10" stroke-width="2.5"/></g></svg>