<?xml version="1.0" ?><!DOCTYPE svg  PUBLIC '-//W3C//DTD SVG 1.1//EN'  'http://www.w3.org/Graphics/SVG/1.1/DTD/svg11.dtd'><svg enable-background="new 0 0 85 85" height="85px" id="Layer_1" version="1.1" viewBox="0 0 85 85" width="85px" xml:space="preserve" xmlns="http://www.w3.org/2000/svg" xmlns:xlink="http://www.w3.org/1999/xlink"><g><g><path d="    M61.221,54.854c0.287-9.754-14.287-16.995-14.287-16.995C30.017,29.977,30.483,20.61,30.483,20.61    C30.233,9.36,41.017,8.477,44.184,8.409c1.504-0.032,12.051-0.248,17.551,13.001c0,0,1.449,3.9,0.949,7.699" fill="none" stroke="#99734c" stroke-linecap="round" stroke-linejoin="round" stroke-miterlimit="10" stroke-width="2.5"/><path d="    M48.809,17.984c0,0,19.625,9.375,18.125,25.125c0,0-0.299,6.625-5.549,12" fill="none" stroke="#99734c" stroke-linecap="round" stroke-linejoin="round" stroke-miterlimit="10" stroke-width="2.5"/><path d="    M25.879,20.704c-5.66,4.371-14.612,16.773,0.229,35.806" fill="none" stroke="#99734c" stroke-linecap="round" stroke-linejoin="round" stroke-miterlimit="10" stroke-width="2.5"/><path d="    M37.123,37.71c-3.84,1.501-12.356,6.147-11.189,17.524" fill="none" stroke="#99734c" stroke-linecap="round" stroke-linejoin="round" stroke-miterlimit="10" stroke-width="2.5"/><path d="    M39.601,9.026c0,0-8,5.667,3.667,14.667" fill="none" stroke="#99734c" stroke-linecap="round" stroke-linejoin="round" stroke-miterlimit="10" stroke-width="2.5"/><path d="    M60.701,38.726c0,0,4.9,4.1,5.566,7.768" fill="none" stroke="#99734c" stroke-linecap="round" stroke-linejoin="round" stroke-miterlimit="10" stroke-width="2.5"/><g><g><polygon fill="none" points="      43.156,76.596 43.154,76.596 43.152,76.596     " stroke="#99734c" stroke-linecap="round" stroke-linejoin="round" stroke-miterlimit="10" stroke-width="2.5"/><path d="      M25.726,54.854c0,0,4.921,21.74,17.729,21.742c12.807-0.002,17.727-21.742,17.727-21.742" fill="none" stroke="#99734c" stroke-linecap="round" stroke-linejoin="round" stroke-miterlimit="10" stroke-width="2.5"/></g><line fill="none" stroke="#99734c" stroke-linecap="round" stroke-linejoin="round" stroke-miterlimit="10" stroke-width="2.5" x1="40.953" x2="45.953" y1="67.109" y2="67.109"/></g></g><path d="   M35.284,43.783c2.528,0.947,4.325,3.389,4.325,6.244c0,3.684-2.985,6.668-6.667,6.668s-6.667-2.984-6.667-6.668   c0-0.738,0.121-1.449,0.342-2.113" fill="none" stroke="#99734c" stroke-linecap="round" stroke-linejoin="round" stroke-miterlimit="10" stroke-width="2.5"/><path d="   M57.332,45.756c1.088,1.188,1.752,2.77,1.752,4.508c0,3.682-2.986,6.668-6.668,6.668c-3.684,0-6.668-2.986-6.668-6.668   c0-2.344,1.207-4.402,3.033-5.592" fill="none" stroke="#99734c" stroke-linecap="round" stroke-linejoin="round" stroke-miterlimit="10" stroke-width="2.5"/></g></svg>