<?xml version="1.0" ?><!DOCTYPE svg  PUBLIC '-//W3C//DTD SVG 1.1//EN'  'http://www.w3.org/Graphics/SVG/1.1/DTD/svg11.dtd'><svg enable-background="new 0 0 85 85" height="85px" id="Layer_1" version="1.1" viewBox="0 0 85 85" width="85px" xml:space="preserve" xmlns="http://www.w3.org/2000/svg" xmlns:xlink="http://www.w3.org/1999/xlink"><g><path d="M55.488,28.502   c9.963,1.114,17.775,9.627,17.775,19.876v4.554c0,11-9,20-20,20H31.736c-11,0-20-9-20-20v-4.554   c0-10.028,7.48-18.395,17.137-19.794" fill="none" stroke="#99734c" stroke-miterlimit="10" stroke-width="2.5"/><line fill="none" stroke="#99734c" stroke-miterlimit="10" stroke-width="2.5" x1="33.762" x2="50.408" y1="23.25" y2="23.25"/><line fill="none" stroke="#99734c" stroke-miterlimit="10" stroke-width="2.5" x1="33.762" x2="50.457" y1="32.71" y2="32.71"/><path d="   M22.879,50.321l3.641-3.915c0.75-0.806,1.976-0.806,2.725,0l2.191,2.355c0.749,0.805,1.975,0.805,2.724,0l2.188-2.355   c0.749-0.806,1.975-0.806,2.724,0l2.428,2.61c0.749,0.806,1.975,0.806,2.724,0l2.339-2.515c0.749-0.806,1.975-0.806,2.724,0   l2.22,2.387c0.749,0.805,1.975,0.805,2.724,0l2.221-2.387c0.749-0.806,1.975-0.806,2.724,0l3.61,3.884" fill="none" stroke="#99734c" stroke-linecap="round" stroke-linejoin="round" stroke-miterlimit="10" stroke-width="2.5"/><path d="   M22.879,60.314L26.52,56.4c0.75-0.806,1.977-0.806,2.725,0l2.191,2.354c0.748,0.806,1.975,0.806,2.724,0l2.188-2.354   c0.749-0.806,1.975-0.806,2.724,0l2.428,2.61c0.749,0.806,1.975,0.806,2.724-0.001l2.339-2.514   c0.749-0.807,1.975-0.807,2.724-0.001l2.22,2.387c0.749,0.806,1.975,0.806,2.724,0.001l2.221-2.388   c0.749-0.806,1.975-0.806,2.724,0.001l3.61,3.883" fill="none" stroke="#99734c" stroke-linecap="round" stroke-linejoin="round" stroke-miterlimit="10" stroke-width="2.5"/></g><path d="  M37.533,12.068c-3.621,0-3.873,4.094-3.873,5.4v21.334" fill="none" stroke="#99734c" stroke-linecap="round" stroke-linejoin="round" stroke-miterlimit="10" stroke-width="2.5"/><path d="  M54.477,12.068c-3.621,0-3.873,4.094-3.873,5.4v21.334" fill="none" stroke="#99734c" stroke-linecap="round" stroke-linejoin="round" stroke-miterlimit="10" stroke-width="2.5"/></svg>