<?xml version="1.0" ?><!DOCTYPE svg  PUBLIC '-//W3C//DTD SVG 1.1//EN'  'http://www.w3.org/Graphics/SVG/1.1/DTD/svg11.dtd'><svg enable-background="new 0 0 85 85" height="85px" id="Layer_1" version="1.1" viewBox="0 0 85 85" width="85px" xml:space="preserve" xmlns="http://www.w3.org/2000/svg" xmlns:xlink="http://www.w3.org/1999/xlink"><g><g><line fill="none" stroke="#99734c" stroke-linecap="round" stroke-miterlimit="10" stroke-width="2.5" x1="45.135" x2="24.591" y1="61.703" y2="61.703"/><path d="M58.162,77.271    l-9.688-20.248l-15.288-0.02c-7.639,0-7.127-4.848-7.79-7.639c-1.339-5.629-3.122-16.008-3.532-18.907    c-1.269-8.952,5.953-6.96,6.985-6.242c5.919,4.119,3.986,9.381,7.404,17.797l11.732,2.049c0,0,3.176,0.539,2.15,4.867" fill="none" stroke="#99734c" stroke-linecap="round" stroke-miterlimit="10" stroke-width="2.5"/><circle cx="29.261" cy="13.329" fill="none" r="5.599" stroke="#99734c" stroke-linecap="round" stroke-linejoin="round" stroke-miterlimit="10" stroke-width="2.5"/><path d="    M63.285,75.734L53.416,51.49c-0.973-2.408-3.979-2.574-3.979-2.574L31.848,47.34l-3.909-11.149" fill="none" stroke="#99734c" stroke-linecap="round" stroke-linejoin="round" stroke-miterlimit="10" stroke-width="2.5"/></g><path d="   M45.482,33.991l1.551-7.305c0.309-1.466-0.334-3.073-1.434-3.57c-1.1-0.499-1.707-2.097-1.352-3.551l2.174-8.91" fill="none" stroke="#99734c" stroke-linecap="round" stroke-linejoin="round" stroke-miterlimit="10" stroke-width="2.5"/><path d="   M56.35,33.991l1.549-7.305c0.309-1.466-0.334-3.073-1.432-3.57c-1.1-0.499-1.709-2.097-1.355-3.551l2.174-8.91" fill="none" stroke="#99734c" stroke-linecap="round" stroke-linejoin="round" stroke-miterlimit="10" stroke-width="2.5"/></g></svg>